<svg width="12" height="12" viewBox="0 0 12 12" fill="none" xmlns="http://www.w3.org/2000/svg">
<path fill-rule="evenodd" clip-rule="evenodd" d="M11.7085 1.37518C12.0079 1.07578 12.0079 0.590356 11.7085 0.290956C11.4091 -0.00844376 10.9237 -0.00844376 10.6243 0.290956L5.99974 4.91552L1.3752 0.290956C1.07578 -0.00844376 0.590356 -0.00844376 0.290956 0.290956C-0.00844374 0.590356 -0.00844374 1.07578 0.290956 1.37518L4.91552 5.99974L0.290956 10.6243C-0.00844374 10.9238 -0.00844374 11.4091 0.290956 11.7086C0.590356 12.0079 1.07578 12.0079 1.3752 11.7086L5.99974 7.08397L10.6243 11.7086C10.9237 12.0079 11.4091 12.0079 11.7085 11.7086C12.0079 11.4091 12.0079 10.9238 11.7085 10.6243L7.08397 5.99974L11.7085 1.37518Z" fill="white"/>
</svg>
