<svg width="16" height="16" viewBox="0 0 16 16" fill="none" xmlns="http://www.w3.org/2000/svg">
<rect width="16" height="16" fill="white" fill-opacity="0.01"/>
<path fill-rule="evenodd" clip-rule="evenodd" d="M12.5676 4.30032C12.8071 4.0608 12.8071 3.67246 12.5676 3.43294C12.3281 3.19342 11.9397 3.19342 11.7003 3.43294L8.00058 7.13258L4.30094 3.43294C4.06141 3.19342 3.67307 3.19342 3.43355 3.43294C3.19403 3.67246 3.19403 4.0608 3.43355 4.30032L7.13319 7.99997L3.43355 11.6996C3.19403 11.9392 3.19403 12.3274 3.43355 12.567C3.67307 12.8065 4.06141 12.8065 4.30094 12.567L8.00058 8.86735L11.7003 12.567C11.9397 12.8065 12.3281 12.8065 12.5676 12.567C12.8071 12.3274 12.8071 11.9392 12.5676 11.6996L8.86796 7.99997L12.5676 4.30032Z" fill="#B5B5B5"/>
</svg>
