<svg width="20" height="20" viewBox="0 0 20 20" fill="none" xmlns="http://www.w3.org/2000/svg">
<rect width="20" height="20" fill="white" fill-opacity="0.01"/>
<path fill-rule="evenodd" clip-rule="evenodd" d="M15.7085 5.37518C16.0079 5.07578 16.0079 4.59036 15.7085 4.29096C15.4091 3.99156 14.9237 3.99156 14.6243 4.29096L9.99974 8.91552L5.3752 4.29096C5.07578 3.99156 4.59036 3.99156 4.29096 4.29096C3.99156 4.59036 3.99156 5.07578 4.29096 5.37518L8.91552 9.99974L4.29096 14.6243C3.99156 14.9238 3.99156 15.4091 4.29096 15.7086C4.59036 16.0079 5.07578 16.0079 5.3752 15.7086L9.99974 11.084L14.6243 15.7086C14.9237 16.0079 15.4091 16.0079 15.7085 15.7086C16.0079 15.4091 16.0079 14.9238 15.7085 14.6243L11.084 9.99974L15.7085 5.37518Z" fill="#4A4A4A"/>
</svg>
