<svg width="20" height="20" viewBox="0 0 20 20" fill="none" xmlns="http://www.w3.org/2000/svg">
<g id="mynaui:hard-drive">
<path id="Vector" d="M2.60039 10.6H16.6004M13.6004 13.8H14.4004M10.4004 13.8H11.2004M4.36039 3.488L2.63079 9.7656C2.47805 10.3194 2.40055 10.8912 2.40039 11.4656V15.4C2.40039 15.8243 2.56896 16.2313 2.86902 16.5314C3.16908 16.8314 3.57604 17 4.00039 17H15.2004C15.6247 17 16.0317 16.8314 16.3318 16.5314C16.6318 16.2313 16.8004 15.8243 16.8004 15.4V11.4656C16.8002 10.8912 16.7227 10.3194 16.57 9.7656L14.8404 3.488C14.7079 3.22143 14.5037 2.99709 14.2508 2.84022C13.9978 2.68335 13.7061 2.60016 13.4084 2.6H5.79239C5.49472 2.60016 5.203 2.68335 4.95003 2.84022C4.69705 2.99709 4.49285 3.22143 4.36039 3.488Z" stroke="#4A4A4A" stroke-width="1.2" stroke-linecap="round" stroke-linejoin="round"/>
</g>
</svg>
