<svg width="20" height="20" viewBox="0 0 20 20" fill="none" xmlns="http://www.w3.org/2000/svg">
<path d="M5.68989 14.3862L7.44162 13.8809L17.9888 3.20801C18.072 3.12276 18.1183 3.00821 18.1177 2.8891C18.1172 2.76999 18.0698 2.65588 17.9858 2.57141L17.3542 1.93283C17.3133 1.89089 17.2646 1.8575 17.2107 1.83461C17.1568 1.81172 17.099 1.79979 17.0404 1.79951C16.9819 1.79924 16.9239 1.81062 16.8699 1.833C16.8158 1.85537 16.7667 1.8883 16.7255 1.92985L6.20615 12.5749L5.68989 14.3862ZM18.6045 0.667599L19.2362 1.30718C20.1076 2.18946 20.1155 3.61284 19.2521 4.48617L8.38363 15.4853L4.63945 16.5636C4.52625 16.5954 4.4079 16.6046 4.29115 16.5907C4.1744 16.5767 4.06154 16.5399 3.95901 16.4824C3.85647 16.4249 3.76628 16.3477 3.69358 16.2553C3.62088 16.1629 3.56709 16.0571 3.53529 15.9439C3.4865 15.7797 3.48581 15.6051 3.5333 15.4406L4.62254 11.621L15.4622 0.65069C15.6683 0.443158 15.9137 0.278741 16.184 0.167029C16.4543 0.0553176 16.7442 -0.00145314 17.0367 2.82617e-05C17.3292 0.00150966 17.6185 0.0612135 17.8876 0.175658C18.1568 0.290102 18.4005 0.45799 18.6045 0.667599ZM7.14618 1.81446C7.63957 1.81446 8.03945 2.2193 8.03945 2.71863C8.04024 2.83666 8.01775 2.9537 7.97327 3.06304C7.92879 3.17238 7.8632 3.27188 7.78024 3.35585C7.69727 3.43982 7.59857 3.50662 7.48978 3.55242C7.38098 3.59823 7.26422 3.62214 7.14618 3.62279H3.57309C2.58631 3.62279 1.78654 4.43246 1.78654 5.43012V16.2781C1.78654 17.2767 2.58631 18.0864 3.57309 18.0864H14.2924C15.2791 18.0864 16.0799 17.2767 16.0799 16.2781V12.6624C16.0799 12.1631 16.4798 11.7583 16.9732 11.7583C17.4666 11.7583 17.8664 12.1631 17.8664 12.6634V16.2781C17.8664 18.2754 16.2659 19.8947 14.2924 19.8947H3.57309C1.59953 19.8947 0 18.2754 0 16.2781V5.43012C0 3.4338 1.59953 1.81446 3.57309 1.81446H7.14618Z" fill="#B5B5B5"/>
</svg>
