<svg width="26" height="26" viewBox="0 0 26 26" fill="none" xmlns="http://www.w3.org/2000/svg">
<path d="M21.4038 12.8088C20.7612 11.1273 19.6408 9.67063 18.1806 8.61812L20.875 5.91813L20.0819 5.125L5.125 20.0819L5.91813 20.875L8.78688 18.0119C10.0676 18.7577 11.5182 19.1625 13 19.1875C14.8335 19.1186 16.6065 18.5139 18.1001 17.4482C19.5936 16.3825 20.7422 14.9026 21.4038 13.1912C21.4484 13.0677 21.4484 12.9323 21.4038 12.8088ZM13 16.6562C12.2247 16.6559 11.4697 16.4075 10.8456 15.9475L11.875 14.9294C12.3018 15.1632 12.793 15.2524 13.2748 15.1835C13.7565 15.1146 14.203 14.8913 14.5471 14.5471C14.8913 14.203 15.1146 13.7565 15.1835 13.2748C15.2524 12.793 15.1632 12.3018 14.9294 11.875L15.9475 10.8569C16.3438 11.4011 16.5818 12.0444 16.6353 12.7155C16.6888 13.3866 16.5557 14.0595 16.2507 14.6597C15.9456 15.2598 15.4806 15.764 14.9069 16.1163C14.3332 16.4687 13.6733 16.6556 13 16.6562ZM6.54813 16.2681L9.36063 13.4556C9.34621 13.3042 9.34057 13.1521 9.34375 13C9.34524 12.0308 9.73093 11.1016 10.4163 10.4163C11.1016 9.73093 12.0308 9.34524 13 9.34375C13.1485 9.34474 13.2969 9.35413 13.4444 9.37188L15.5706 7.25125C14.7431 6.96712 13.875 6.81895 13 6.8125C11.1665 6.88145 9.39347 7.48612 7.89993 8.5518C6.40639 9.61747 5.25785 11.0974 4.59625 12.8088C4.55157 12.9323 4.55157 13.0677 4.59625 13.1912C5.02885 14.3399 5.69326 15.3873 6.54813 16.2681Z" fill="#8A8A8A"/>
</svg>
