<svg width="26" height="26" viewBox="0 0 26 26" fill="none" xmlns="http://www.w3.org/2000/svg">
<path d="M13 15.25C14.2426 15.25 15.25 14.2426 15.25 13C15.25 11.7574 14.2426 10.75 13 10.75C11.7574 10.75 10.75 11.7574 10.75 13C10.75 14.2426 11.7574 15.25 13 15.25Z" fill="#8A8A8A"/>
<path d="M21.4035 12.8088C20.7419 11.0974 19.5934 9.61747 18.0998 8.5518C16.6063 7.48612 14.8332 6.88145 12.9998 6.8125C11.1663 6.88145 9.39323 7.48612 7.89969 8.5518C6.40614 9.61747 5.2576 11.0974 4.59601 12.8088C4.55133 12.9323 4.55133 13.0677 4.59601 13.1912C5.2576 14.9026 6.40614 16.3825 7.89969 17.4482C9.39323 18.5139 11.1663 19.1186 12.9998 19.1875C14.8332 19.1186 16.6063 18.5139 18.0998 17.4482C19.5934 16.3825 20.7419 14.9026 21.4035 13.1912C21.4482 13.0677 21.4482 12.9323 21.4035 12.8088ZM12.9998 16.6562C12.2766 16.6562 11.5697 16.4418 10.9685 16.0401C10.3672 15.6383 9.89856 15.0673 9.62183 14.3992C9.34509 13.7311 9.27269 12.9959 9.41376 12.2867C9.55484 11.5775 9.90307 10.926 10.4144 10.4146C10.9257 9.90331 11.5772 9.55508 12.2865 9.414C12.9957 9.27293 13.7309 9.34533 14.3989 9.62207C15.067 9.8988 15.6381 10.3674 16.0398 10.9687C16.4416 11.57 16.656 12.2769 16.656 13C16.6545 13.9692 16.2688 14.8984 15.5835 15.5837C14.8981 16.2691 13.969 16.6548 12.9998 16.6562Z" fill="#8A8A8A"/>
</svg>
