<svg width="10" height="10" viewBox="0 0 10 10" fill="none" xmlns="http://www.w3.org/2000/svg">
<rect x="0.5" y="0.5" width="9" height="9" rx="4.5" fill="#F03D21"/>
<path d="M6.48047 3.0293C6.61697 2.93928 6.80273 2.95407 6.92285 3.07422H6.92188C7.05912 3.21144 7.05882 3.43291 6.92188 3.57031L6.92285 3.57129L5.49414 4.99902L6.92285 6.42676L6.96777 6.48242C7.04476 6.59935 7.04486 6.75226 6.96777 6.86914L6.92285 6.9248C6.80279 7.04487 6.61695 7.05958 6.48047 6.96973L6.4248 6.9248L4.99707 5.49609L3.56934 6.9248C3.44926 7.04445 3.26425 7.05941 3.12793 6.96973L3.07227 6.9248C2.93491 6.78742 2.93491 6.56414 3.07227 6.42676L4.49902 4.99902L3.07227 3.57129C2.93511 3.43391 2.93497 3.21151 3.07227 3.07422L3.12793 3.0293C3.26436 2.9394 3.44921 2.9543 3.56934 3.07422L4.99707 4.50098L6.4248 3.07422L6.48047 3.0293Z" fill="white" stroke="white" stroke-width="0.206"/>
</svg>
