<svg width="18" height="18" viewBox="0 0 18 18" fill="none" xmlns="http://www.w3.org/2000/svg">
<rect width="18" height="18" fill="white" fill-opacity="0.01"/>
<path fill-rule="evenodd" clip-rule="evenodd" d="M8.48479 1.21284C8.77069 0.929054 9.22933 0.929054 9.51523 1.21284L17.7806 9.41671C18.0698 9.70382 18.0736 10.1732 17.7891 10.465C17.5046 10.7569 17.0394 10.7608 16.7502 10.4736L15.7347 9.46581V16.3822C15.7347 16.7234 15.4606 17 15.1224 17H2.87755C2.53942 17 2.2653 16.7234 2.2653 16.3822V9.46581L1.24992 10.4736C0.960654 10.7608 0.495487 10.7569 0.210938 10.465C-0.0736122 10.1732 -0.0697913 9.70382 0.219472 9.41671L8.48479 1.21284ZM9 2.78118L14.5102 8.25043V15.7645H12.0612V11.4401C12.0612 11.099 11.7871 10.8224 11.449 10.8224H7.77551C7.43738 10.8224 7.16327 11.099 7.16327 11.4401V15.7645H3.48979V8.25043L9 2.78118ZM8.38776 15.7645H10.8367V12.0579H8.38776V15.7645Z" fill="#6B6B6B"/>
</svg>
