<svg width="262" height="72" viewBox="0 0 262 72" fill="none" xmlns="http://www.w3.org/2000/svg">
<rect width="72" height="72" rx="18" fill="#222222"/>
<path d="M13.2 36H34.2V57" stroke="white" stroke-width="12" stroke-linecap="round" stroke-linejoin="round"/>
<path d="M30.2999 18.6H51.2999V39.6" stroke="white" stroke-width="12" stroke-linecap="round" stroke-linejoin="round"/>
<circle cx="30.3" cy="18.6" r="5.4" fill="#A259FF" fill-opacity="0.7"/>
<path d="M104.802 50.6279C104.802 49.2479 104.388 48.167 103.56 47.3849C102.732 46.603 101.697 45.959 100.455 45.4529C99.259 44.901 97.925 44.3949 96.453 43.9349C95.027 43.4289 93.693 42.8079 92.451 42.0719C91.255 41.2899 90.243 40.3009 89.415 39.1049C88.587 37.9089 88.173 36.2989 88.173 34.2749C88.173 30.9629 89.116 28.5479 91.002 27.0299C92.888 25.4659 95.51 24.6839 98.868 24.6839C101.352 24.6839 103.422 24.9139 105.078 25.3739C106.78 25.7879 108.252 26.2939 109.494 26.8919L108.183 31.4459C107.125 30.9399 105.837 30.5029 104.319 30.1349C102.847 29.7209 101.26 29.5139 99.558 29.5139C97.534 29.5139 96.039 29.8589 95.073 30.5489C94.153 31.2389 93.693 32.4349 93.693 34.1369C93.693 35.3329 94.107 36.2759 94.935 36.9659C95.763 37.6099 96.775 38.2079 97.971 38.7599C99.213 39.2659 100.547 39.7719 101.973 40.2779C103.445 40.7839 104.779 41.4509 105.975 42.2789C107.217 43.1069 108.252 44.165 109.08 45.4529C109.908 46.695 110.322 48.3509 110.322 50.4209C110.322 51.8929 110.069 53.2729 109.563 54.561C109.103 55.8489 108.367 56.9529 107.355 57.8729C106.343 58.7929 105.078 59.5059 103.56 60.0119C102.088 60.5639 100.34 60.84 98.316 60.84C95.694 60.84 93.463 60.5869 91.623 60.0809C89.783 59.5749 88.242 58.9769 87 58.2869L88.656 53.5949C89.714 54.1929 91.094 54.7449 92.796 55.2509C94.498 55.7569 96.223 56.0099 97.971 56.0099C99.949 56.0099 101.582 55.619 102.87 54.837C104.158 54.055 104.802 52.6519 104.802 50.6279Z" fill="white"/>
<path d="M117.56 25.5119H122.942V18.6809L128.462 17.0939V25.5119H137.846V30.3419H128.462V49.4549C128.462 51.847 128.761 53.549 129.359 54.561C129.957 55.527 130.969 56.0099 132.395 56.0099C133.591 56.0099 134.603 55.8949 135.431 55.6649C136.259 55.3889 137.179 55.044 138.191 54.63L139.433 58.839C138.191 59.437 136.834 59.9199 135.362 60.2879C133.89 60.6559 132.303 60.84 130.601 60.84C127.795 60.84 125.817 60.0579 124.667 58.4939C123.517 56.8839 122.942 54.2159 122.942 50.4899V30.3419H117.56V25.5119Z" fill="white"/>
<path d="M150.119 25.5119H155.639V60.0119H150.119V25.5119ZM148.946 15.0239C148.946 13.9659 149.291 13.0689 149.981 12.3329C150.717 11.5509 151.637 11.1599 152.741 11.1599C153.845 11.1599 154.788 11.5509 155.57 12.3329C156.352 13.0689 156.743 13.9659 156.743 15.0239C156.743 16.0819 156.352 16.9559 155.57 17.6459C154.788 18.3359 153.845 18.6809 152.741 18.6809C151.637 18.6809 150.717 18.3359 149.981 17.6459C149.291 16.9559 148.946 16.0819 148.946 15.0239Z" fill="white"/>
<path d="M166.305 25.5119H171.687V18.6809L177.207 17.0939V25.5119H186.591V30.3419H177.207V49.4549C177.207 51.847 177.506 53.549 178.104 54.561C178.702 55.527 179.714 56.0099 181.14 56.0099C182.336 56.0099 183.348 55.8949 184.176 55.6649C185.004 55.3889 185.924 55.044 186.936 54.63L188.178 58.839C186.936 59.437 185.579 59.9199 184.107 60.2879C182.635 60.6559 181.048 60.84 179.346 60.84C176.54 60.84 174.562 60.0579 173.412 58.4939C172.262 56.8839 171.687 54.2159 171.687 50.4899V30.3419H166.305V25.5119Z" fill="white"/>
<path d="M220.478 57.7349C219.098 58.7469 217.465 59.5059 215.579 60.0119C213.693 60.5639 211.715 60.84 209.645 60.84C206.977 60.84 204.723 60.4259 202.883 59.5979C201.043 58.7239 199.525 57.5049 198.329 55.9409C197.179 54.3309 196.328 52.422 195.776 50.214C195.27 47.9599 195.017 45.4759 195.017 42.7619C195.017 36.9199 196.305 32.4579 198.881 29.3759C201.457 26.2479 205.16 24.6839 209.99 24.6839C212.198 24.6839 214.061 24.8679 215.579 25.2359C217.143 25.5579 218.546 26.0409 219.788 26.6849L218.201 31.4459C217.143 30.8479 215.97 30.3879 214.682 30.0659C213.394 29.6979 212.014 29.5139 210.542 29.5139C204.01 29.5139 200.744 33.9299 200.744 42.7619C200.744 44.5099 200.905 46.1889 201.227 47.799C201.595 49.3629 202.17 50.7659 202.952 52.0079C203.78 53.2039 204.838 54.1699 206.126 54.9059C207.46 55.6419 209.093 56.0099 211.025 56.0099C212.681 56.0099 214.153 55.7569 215.441 55.2509C216.775 54.7449 217.856 54.1699 218.684 53.5259L220.478 57.7349Z" fill="white"/>
<path d="M253.679 60.0119V40.3469C253.679 38.5529 253.564 36.9889 253.334 35.6549C253.15 34.2749 252.782 33.1479 252.23 32.2739C251.678 31.3539 250.919 30.6639 249.953 30.2039C249.033 29.7439 247.814 29.5139 246.296 29.5139C244.134 29.5139 242.179 30.2269 240.431 31.6529C238.683 33.0329 237.556 34.8269 237.05 37.0349V60.0119H231.53V11.7119H237.05V29.3759H237.326C238.522 27.9499 239.948 26.8229 241.604 25.9949C243.306 25.1209 245.399 24.6839 247.883 24.6839C249.815 24.6839 251.494 24.9139 252.92 25.3739C254.346 25.7879 255.519 26.5469 256.439 27.6509C257.405 28.7549 258.095 30.2499 258.509 32.1359C258.969 33.9759 259.199 36.3219 259.199 39.1739V60.0119H253.679Z" fill="white"/>
<path fill-rule="evenodd" clip-rule="evenodd" d="M99.4989 47.655L99.4493 47.6321C98.3617 47.1301 97.1265 46.6599 95.7372 46.2257L95.6935 46.2121L95.6504 46.1968C94.0851 45.6413 92.6094 44.9555 91.2275 44.1367L91.1819 44.1097L91.1376 44.0807C89.6775 43.126 88.4429 41.9172 87.4418 40.4711C86.2464 38.7444 85.773 36.6019 85.773 34.2749C85.773 30.5266 86.8522 27.2975 89.4834 25.1715C91.9343 23.1456 95.1637 22.2839 98.868 22.2839C101.464 22.2839 103.755 22.5208 105.682 23.0509C107.491 23.4931 109.117 24.0467 110.535 24.7295L112.361 25.6086L109.705 34.8342L107.148 33.6111C106.28 33.1962 105.159 32.8082 103.754 32.4674L103.711 32.4571L103.669 32.4453C102.431 32.0971 101.065 31.9139 99.558 31.9139C97.764 31.9139 96.8739 32.2278 96.496 32.4825C96.4007 32.5629 96.093 32.9012 96.093 34.1369C96.093 34.6863 96.2425 34.9229 96.4461 35.1006C97.0831 35.5905 97.9015 36.081 98.9282 36.5584C100.115 37.0407 101.393 37.5254 102.765 38.0123C104.419 38.582 105.943 39.3401 107.324 40.2938C108.835 41.3046 110.092 42.5936 111.088 44.1389C112.254 45.8973 112.722 48.0619 112.722 50.4209C112.722 52.1612 112.424 53.8291 111.81 55.4039C111.217 57.0478 110.264 58.4723 108.969 59.6488C107.682 60.8193 106.125 61.6814 104.361 62.2749C102.564 62.9413 100.532 63.24 98.316 63.24C95.5531 63.24 93.095 62.9748 90.9867 62.395C89.0208 61.8545 87.2895 61.1933 85.8345 60.3849L84.062 59.4002L87.3454 50.0973L89.837 51.5056C90.6839 51.9843 91.8794 52.4746 93.48 52.9505C94.9635 53.3915 96.4583 53.6099 97.971 53.6099C99.6439 53.6099 100.812 53.2787 101.624 52.7855C101.957 52.5838 102.402 52.1371 102.402 50.6279C102.402 49.7577 102.161 49.3645 101.912 49.1298C101.335 48.5843 100.565 48.0891 99.5495 47.6756L99.4989 47.655ZM103.56 60.0119C105.078 59.5059 106.343 58.7929 107.355 57.8729C108.367 56.9529 109.103 55.8489 109.563 54.561C110.069 53.2729 110.322 51.8929 110.322 50.4209C110.322 48.3509 109.908 46.695 109.08 45.4529C108.252 44.165 107.217 43.1069 105.975 42.2789C104.779 41.4509 103.445 40.7839 101.973 40.2779C100.547 39.7719 99.213 39.2659 97.971 38.7599C96.775 38.2079 95.763 37.6099 94.935 36.9659C94.107 36.2759 93.693 35.3329 93.693 34.1369C93.693 32.4349 94.153 31.2389 95.073 30.5489C96.039 29.8589 97.534 29.5139 99.558 29.5139C101.26 29.5139 102.847 29.7209 104.319 30.1349C104.89 30.2734 105.429 30.4217 105.935 30.5797C106.774 30.8416 107.523 31.1303 108.183 31.4459L109.494 26.8919C108.252 26.2939 106.78 25.7879 105.078 25.3739C103.422 24.9139 101.352 24.6839 98.868 24.6839C95.51 24.6839 92.888 25.4659 91.002 27.0299C89.116 28.5479 88.173 30.9629 88.173 34.2749C88.173 36.2989 88.587 37.9089 89.415 39.1049C90.243 40.3009 91.255 41.2899 92.451 42.0719C93.693 42.8079 95.027 43.4289 96.453 43.9349C97.925 44.3949 99.259 44.901 100.455 45.4529C101.697 45.959 102.732 46.603 103.56 47.3849C104.388 48.167 104.802 49.2479 104.802 50.6279C104.802 52.6519 104.158 54.055 102.87 54.837C101.582 55.619 99.949 56.0099 97.971 56.0099C96.223 56.0099 94.498 55.7569 92.796 55.2509C92.0911 55.0414 91.4414 54.8239 90.8469 54.5985C90.0061 54.2798 89.2758 53.9453 88.656 53.5949L87 58.2869C88.242 58.9769 89.783 59.5749 91.623 60.0809C93.463 60.5869 95.694 60.84 98.316 60.84C100.34 60.84 102.088 60.5639 103.56 60.0119ZM115.16 23.1119H120.542V16.8737L130.862 13.9067V23.1119H140.246V32.7419H130.862V49.4549C130.862 51.7543 131.169 52.8946 131.418 53.327C131.478 53.4207 131.647 53.6099 132.395 53.6099C133.418 53.6099 134.183 53.5132 134.735 53.3671C135.486 53.1148 136.334 52.7964 137.282 52.4086L139.741 51.4028L142.312 60.1163L140.474 61.0014C139.071 61.6768 137.559 62.2126 135.944 62.6163C134.26 63.0373 132.476 63.24 130.601 63.24C127.391 63.24 124.513 62.3358 122.733 59.9157L122.724 59.9024L122.714 59.8889C121.112 57.6456 120.542 54.3377 120.542 50.4899V32.7419H115.16V23.1119ZM122.942 30.3419V50.4899C122.942 54.2159 123.517 56.8839 124.667 58.4939C125.817 60.0579 127.795 60.84 130.601 60.84C132.303 60.84 133.89 60.6559 135.362 60.2879C136.834 59.9199 138.191 59.437 139.433 58.839L138.191 54.63C137.383 54.9606 136.633 55.2472 135.942 55.4898C135.768 55.551 135.598 55.6094 135.431 55.6649C134.603 55.8949 133.591 56.0099 132.395 56.0099C130.969 56.0099 129.957 55.527 129.359 54.561C128.761 53.549 128.462 51.847 128.462 49.4549V30.3419H137.846V25.5119H128.462V17.0939L122.942 18.6809V25.5119H117.56V30.3419H122.942ZM147.719 23.1119H158.039V62.412H147.719V23.1119ZM148.23 10.6915L148.233 10.6881C149.437 9.40912 150.996 8.75995 152.741 8.75995C154.471 8.75995 156.014 9.39577 157.241 10.6104C158.48 11.7887 159.143 13.3053 159.143 15.0239C159.143 16.7591 158.465 18.2925 157.158 19.4456C155.91 20.5465 154.392 21.0809 152.741 21.0809C151.09 21.0809 149.564 20.5448 148.339 19.3968L148.311 19.3704L148.284 19.343C147.104 18.1628 146.546 16.6593 146.546 15.0239C146.546 13.3889 147.101 11.8956 148.23 10.6915ZM155.57 12.3329C154.788 11.5509 153.845 11.1599 152.741 11.1599C151.637 11.1599 150.717 11.5509 149.981 12.3329C149.291 13.0689 148.946 13.9659 148.946 15.0239C148.946 16.0819 149.291 16.9559 149.981 17.6459C150.717 18.3359 151.637 18.6809 152.741 18.6809C153.845 18.6809 154.788 18.3359 155.57 17.6459C156.352 16.9559 156.743 16.0819 156.743 15.0239C156.743 13.9659 156.352 13.0689 155.57 12.3329ZM163.905 23.1119H169.287V16.8737L179.607 13.9067V23.1119H188.991V32.7419H179.607V49.4549C179.607 51.7541 179.914 52.8945 180.162 53.3269C180.223 53.4206 180.392 53.6099 181.14 53.6099C182.163 53.6099 182.928 53.5132 183.479 53.3671C184.231 53.1148 185.079 52.7964 186.027 52.4086L188.486 51.4028L191.057 60.1163L189.219 61.0014C187.816 61.6768 186.303 62.2126 184.689 62.6163C183.005 63.0373 181.221 63.24 179.346 63.24C176.135 63.24 173.258 62.3358 171.478 59.9157L171.468 59.9024L171.459 59.8889C169.856 57.6456 169.287 54.3377 169.287 50.4899V32.7419H163.905V23.1119ZM171.687 30.3419V50.4899C171.687 54.2159 172.262 56.8839 173.412 58.4939C174.562 60.0579 176.54 60.84 179.346 60.84C181.048 60.84 182.635 60.6559 184.107 60.2879C185.579 59.9199 186.936 59.437 188.178 58.839L186.936 54.63C186.128 54.9606 185.378 55.2472 184.687 55.4898C184.513 55.551 184.342 55.6094 184.176 55.6649C183.348 55.8949 182.336 56.0099 181.14 56.0099C179.714 56.0099 178.702 55.527 178.104 54.561C177.506 53.549 177.207 51.847 177.207 49.4549V30.3419H186.591V25.5119H177.207V17.0939L171.687 18.6809V25.5119H166.305V30.3419H171.687ZM223.432 58.5448L221.898 59.6703C220.253 60.8762 218.35 61.7504 216.228 62.3229C214.119 62.9372 211.922 63.24 209.645 63.24C206.742 63.24 204.131 62.7911 201.898 61.7866L201.876 61.7764L201.854 61.7658C199.681 60.734 197.859 59.2765 196.423 57.3988L196.399 57.3678L196.376 57.3359C195.027 55.447 194.062 53.2527 193.448 50.796L193.441 50.7679L193.435 50.7396C192.884 48.2862 192.617 45.6229 192.617 42.762C192.617 36.6102 193.969 31.5154 197.034 27.8433C200.155 24.0586 204.599 22.2839 209.99 22.2839C212.299 22.2839 214.351 22.4734 216.104 22.8936C217.838 23.2541 219.441 23.8015 220.893 24.5543L222.714 25.4983L219.557 34.9689L217.02 33.5353C216.167 33.0528 215.198 32.6687 214.1 32.3943L214.061 32.3846L214.023 32.3736C212.969 32.0726 211.813 31.9139 210.542 31.9139C207.875 31.9139 206.215 32.777 205.123 34.2531C203.932 35.8646 203.144 38.5715 203.144 42.762C203.144 44.3472 203.289 45.8546 203.573 47.288C203.881 48.5819 204.347 49.707 204.955 50.6842C205.567 51.5551 206.341 52.2613 207.301 52.8129C208.196 53.3025 209.402 53.6099 211.025 53.6099C212.439 53.6099 213.604 53.394 214.564 53.0171L214.577 53.012L214.59 53.007C215.775 52.5575 216.626 52.0865 217.211 51.6315L219.67 49.7185L223.432 58.5448ZM206.126 54.9059C204.838 54.1699 203.78 53.2039 202.952 52.0079C202.17 50.7659 201.595 49.3629 201.227 47.799C200.905 46.1889 200.744 44.5099 200.744 42.7619C200.744 33.9299 204.01 29.5139 210.542 29.5139C212.014 29.5139 213.394 29.6979 214.682 30.0659C215.136 30.1794 215.576 30.31 216.001 30.4577C216.783 30.7292 217.516 31.0586 218.201 31.4459L219.788 26.6849C218.546 26.0409 217.143 25.5579 215.579 25.2359C214.061 24.8679 212.198 24.6839 209.99 24.6839C205.16 24.6839 201.457 26.2479 198.881 29.3759C196.305 32.4579 195.017 36.9199 195.017 42.7619C195.017 45.4759 195.27 47.9599 195.776 50.214C196.328 52.422 197.179 54.3309 198.329 55.9409C199.525 57.5049 201.043 58.7239 202.883 59.5979C204.723 60.4259 206.977 60.84 209.645 60.84C211.715 60.84 213.693 60.5639 215.579 60.0119C217.465 59.5059 219.098 58.7469 220.478 57.7349L218.684 53.5259C218.112 53.9714 217.418 54.3839 216.603 54.7634C216.24 54.9324 215.853 55.095 215.441 55.2509C214.153 55.7569 212.681 56.0099 211.025 56.0099C209.093 56.0099 207.46 55.6419 206.126 54.9059ZM251.279 62.412V40.3469C251.279 38.6485 251.17 37.2268 250.969 36.0627L250.961 36.0176L250.955 35.9721C250.802 34.8224 250.516 34.0541 250.201 33.5555L250.186 33.5323L250.172 33.5087C249.862 32.9924 249.46 32.6272 248.921 32.3708L248.901 32.3609L248.88 32.3506C248.414 32.1174 247.605 31.9139 246.296 31.9139C244.713 31.9139 243.288 32.4197 241.948 33.5126L241.933 33.5248L241.918 33.5367C240.673 34.5202 239.859 35.7568 239.45 37.3235V62.412H229.13V9.31195H239.45V24.4414C239.797 24.233 240.154 24.0371 240.52 23.8538C242.644 22.7659 245.133 22.2839 247.883 22.2839C249.983 22.2839 251.911 22.5313 253.624 23.0792C255.469 23.6216 257.038 24.6294 258.265 26.0925C259.55 27.571 260.373 29.4522 260.846 31.5879C261.365 33.6815 261.599 36.2295 261.599 39.1739V62.412H251.279ZM258.509 32.1359C258.095 30.2499 257.405 28.7549 256.439 27.6509C255.519 26.5469 254.346 25.7879 252.92 25.3739C251.494 24.9139 249.815 24.6839 247.883 24.6839C245.399 24.6839 243.306 25.1209 241.604 25.9949C240.837 26.3786 240.119 26.8265 239.45 27.3387C238.676 27.9317 237.968 28.6108 237.326 29.3759H237.05V11.7119H231.53V60.0119H237.05V37.0349C237.556 34.8269 238.683 33.0329 240.431 31.6529C242.179 30.2269 244.134 29.5139 246.296 29.5139C247.814 29.5139 249.033 29.7439 249.953 30.2039C250.919 30.6639 251.678 31.3539 252.23 32.2739C252.782 33.1479 253.15 34.2749 253.334 35.6549C253.564 36.9889 253.679 38.5529 253.679 40.3469V60.0119H259.199V39.1739C259.199 36.3219 258.969 33.9759 258.509 32.1359ZM155.639 25.5119V60.0119H150.119V25.5119H155.639Z" fill="white"/>
</svg>
