<svg width="16" height="20" viewBox="0 0 16 20" fill="none" xmlns="http://www.w3.org/2000/svg">
<mask id="mask0_192_20500" style="mask-type:alpha" maskUnits="userSpaceOnUse" x="1" y="3" width="14" height="14">
<path fill-rule="evenodd" clip-rule="evenodd" d="M7.99992 3.33337C4.31992 3.33337 1.33325 6.32004 1.33325 10C1.33325 13.68 4.31992 16.6667 7.99992 16.6667C11.6799 16.6667 14.6666 13.68 14.6666 10C14.6666 6.32004 11.6799 3.33337 7.99992 3.33337ZM7.99992 10.6667C7.63325 10.6667 7.33325 10.3667 7.33325 10V7.33337C7.33325 6.96671 7.63325 6.66671 7.99992 6.66671C8.36659 6.66671 8.66659 6.96671 8.66659 7.33337V10C8.66659 10.3667 8.36659 10.6667 7.99992 10.6667ZM7.33325 12V13.3334H8.66659V12H7.33325Z" fill="black"/>
</mask>
<g mask="url(#mask0_192_20500)">
<rect y="2" width="16" height="16" fill="#287D3C"/>
</g>
</svg>
