<svg width="14" height="14" viewBox="0 0 14 14" fill="none" xmlns="http://www.w3.org/2000/svg">
<path d="M6.43341 1.33653L6.4553 1.28528L6.58894 0.972294L6.71018 0.688334C6.8174 0.437222 7.18259 0.437222 7.28981 0.688334L7.41106 0.972294L7.5447 1.28528L7.56658 1.33653L9.00194 4.69818C9.04714 4.80404 9.14935 4.87637 9.26667 4.88553L12.9924 5.17649L13.0491 5.18092L13.3961 5.20801L13.7108 5.23259C13.9891 5.25432 14.1019 5.59264 13.8899 5.76957L13.6501 5.96964L13.3858 6.19017L13.3425 6.22628L10.5039 8.59484C10.4146 8.66943 10.3756 8.78647 10.4029 8.89799L11.27 12.4394L11.2833 12.4935L11.364 12.8232L11.4373 13.1223C11.5021 13.3869 11.2066 13.596 10.9684 13.4542L10.699 13.2939L10.4019 13.1172L10.3533 13.0882L7.16361 11.1904C7.06316 11.1307 6.93683 11.1307 6.83638 11.1904L3.64668 13.0882L3.59805 13.1172L3.30107 13.2939L3.03163 13.4542C2.79337 13.596 2.49793 13.3869 2.5627 13.1223L2.63596 12.8232L2.71671 12.4935L2.72993 12.4394L3.59716 8.89799C3.62447 8.78647 3.58543 8.66943 3.49604 8.59484L0.657468 6.22628L0.614194 6.19017L0.349905 5.96964L0.110129 5.76957C-0.10191 5.59264 0.0109376 5.25432 0.289242 5.23259L0.603951 5.20801L0.950833 5.18092L1.00764 5.17649L4.73332 4.88553C4.85064 4.87637 4.95285 4.80404 4.99805 4.69818L6.43341 1.33653Z" fill="#2F2F2F"/>
</svg>
