<svg width="14" height="14" viewBox="0 0 14 14" fill="none" xmlns="http://www.w3.org/2000/svg">
<mask id="path-1-inside-1_935_31585" fill="white">
<path d="M12.5 0.777778H9.75L8.96429 0H5.03571L4.25 0.777778H1.5V2.33333H12.5M2.28571 12.4444C2.28571 12.857 2.45127 13.2527 2.74597 13.5444C3.04067 13.8361 3.44037 14 3.85714 14H10.1429C10.5596 14 10.9593 13.8361 11.254 13.5444C11.5487 13.2527 11.7143 12.857 11.7143 12.4444V3.11111H2.28571V12.4444Z"/>
</mask>
<path d="M9.75 0.777778L9.04649 1.48846L9.33876 1.77778H9.75V0.777778ZM8.96429 0L9.66779 -0.710687L9.37553 -1H8.96429V0ZM5.03571 0V-1H4.62447L4.33221 -0.710687L5.03571 0ZM4.25 0.777778V1.77778H4.66124L4.95351 1.48846L4.25 0.777778ZM1.5 0.777778V-0.222222H0.5V0.777778H1.5ZM1.5 2.33333H0.5V3.33333H1.5V2.33333ZM2.28571 12.4444H1.28571H2.28571ZM11.7143 3.11111H12.7143V2.11111H11.7143V3.11111ZM2.28571 3.11111V2.11111H1.28571V3.11111H2.28571ZM12.5 -0.222222H9.75V1.77778H12.5V-0.222222ZM10.4535 0.0670908L9.66779 -0.710687L8.26078 0.710687L9.04649 1.48846L10.4535 0.0670908ZM8.96429 -1H5.03571V1H8.96429V-1ZM4.33221 -0.710687L3.54649 0.0670908L4.95351 1.48846L5.73922 0.710687L4.33221 -0.710687ZM4.25 -0.222222H1.5V1.77778H4.25V-0.222222ZM0.5 0.777778V2.33333H2.5V0.777778H0.5ZM1.5 3.33333H12.5V1.33333H1.5V3.33333ZM1.28571 12.4444C1.28571 13.1255 1.55912 13.7766 2.04247 14.2551L3.44948 12.8337C3.34343 12.7287 3.28571 12.5885 3.28571 12.4444H1.28571ZM2.04247 14.2551C2.52547 14.7332 3.17841 15 3.85714 15V13C3.70233 13 3.55588 12.939 3.44948 12.8337L2.04247 14.2551ZM3.85714 15H10.1429V13H3.85714V15ZM10.1429 15C10.8216 15 11.4745 14.7332 11.9575 14.2551L10.5505 12.8337C10.4441 12.939 10.2977 13 10.1429 13V15ZM11.9575 14.2551C12.4409 13.7766 12.7143 13.1255 12.7143 12.4444H10.7143C10.7143 12.5885 10.6566 12.7287 10.5505 12.8337L11.9575 14.2551ZM12.7143 12.4444V3.11111H10.7143V12.4444H12.7143ZM11.7143 2.11111H2.28571V4.11111H11.7143V2.11111ZM1.28571 3.11111V12.4444H3.28571V3.11111H1.28571Z" fill="#2F2F2F" mask="url(#path-1-inside-1_935_31585)"/>
</svg>
