<svg width="20" height="20" viewBox="0 0 20 20" fill="none" xmlns="http://www.w3.org/2000/svg">
<path d="M13.5999 9.84468C13.5999 9.56788 13.5999 9.42948 13.6415 9.30628C13.7623 8.94788 14.0815 8.80948 14.4015 8.66388C14.7599 8.49988 14.9391 8.41828 15.1175 8.40388C15.3191 8.38788 15.5215 8.43108 15.6943 8.52788C15.9231 8.65588 16.0831 8.90068 16.2463 9.09908C17.0007 10.0159 17.3783 10.4743 17.5159 10.9791C17.6279 11.3871 17.6279 11.8143 17.5159 12.2215C17.3151 12.9591 16.6791 13.5767 16.2079 14.1495C15.9671 14.4415 15.8463 14.5879 15.6943 14.6735C15.5186 14.771 15.3178 14.8141 15.1175 14.7975C14.9391 14.7831 14.7599 14.7015 14.4007 14.5375C14.0807 14.3919 13.7623 14.2535 13.6415 13.8951C13.5999 13.7719 13.5999 13.6335 13.5999 13.3575V9.84468ZM5.59993 9.84468C5.59993 9.49588 5.59033 9.18308 5.30873 8.93828C5.20633 8.84948 5.07033 8.78788 4.79913 8.66388C4.43993 8.50068 4.26073 8.41828 4.08233 8.40388C3.54873 8.36068 3.26153 8.72548 2.95433 9.09988C2.19913 10.0159 1.82153 10.4743 1.68313 10.9799C1.57177 11.3865 1.57177 11.8156 1.68313 12.2223C1.88473 12.9591 2.52153 13.5775 2.99193 14.1495C3.28873 14.5095 3.57273 14.8383 4.08233 14.7975C4.26073 14.7831 4.43993 14.7015 4.79913 14.5375C5.07113 14.4143 5.20633 14.3519 5.30873 14.2631C5.59033 14.0183 5.59993 13.7055 5.59993 13.3575V9.84468Z" stroke="#4A4A4A" stroke-width="1.2" stroke-linecap="round" stroke-linejoin="round"/>
<path d="M15.9992 8.8V7.6C15.9992 4.5072 13.1336 2 9.59922 2C6.06482 2 3.19922 4.5072 3.19922 7.6V8.8M15.9992 14.4C15.9992 18 12.7992 18 9.59922 18" stroke="#4A4A4A" stroke-width="1.2" stroke-linecap="round" stroke-linejoin="round"/>
</svg>
