<svg width="20" height="20" viewBox="0 0 20 20" fill="none" xmlns="http://www.w3.org/2000/svg">
<path fill-rule="evenodd" clip-rule="evenodd" d="M5.67883 1H13.5196C14.3332 1 14.8932 1 15.3644 1.1632C15.8047 1.31894 16.2032 1.57403 16.5289 1.90867C16.8547 2.2433 17.099 2.64849 17.2428 3.0928C17.3996 3.5704 17.3988 4.1384 17.3988 4.9808V16.2992C17.3988 17.472 16.0172 18.1696 15.1076 17.3368C15.0784 17.3089 15.0396 17.2933 14.9992 17.2933C14.9588 17.2933 14.92 17.3089 14.8908 17.3368L14.5036 17.6904C13.7612 18.3704 12.6364 18.3704 11.894 17.6904C11.7597 17.5649 11.5827 17.4952 11.3988 17.4952C11.215 17.4952 11.038 17.5649 10.9036 17.6904C10.1612 18.3704 9.03643 18.3704 8.29403 17.6904C8.15966 17.5649 7.98267 17.4952 7.79883 17.4952C7.61499 17.4952 7.438 17.5649 7.30363 17.6904C6.56123 18.3704 5.43643 18.3704 4.69403 17.6904L4.30763 17.3368C4.27841 17.3086 4.23941 17.2929 4.19883 17.2929C4.15825 17.2929 4.11925 17.3086 4.09003 17.3368C3.18043 18.1688 1.79883 17.472 1.79883 16.2992V4.9816C1.79883 4.1384 1.79883 3.5704 1.95483 3.0928C2.09868 2.64849 2.34296 2.2433 2.66871 1.90867C2.99447 1.57403 3.39295 1.31894 3.83323 1.1632C4.30523 0.9992 4.86523 1 5.67883 1ZM5.79483 2.2C4.81803 2.2 4.48123 2.208 4.22683 2.2968C3.96114 2.39206 3.72092 2.54716 3.52477 2.75011C3.32862 2.95306 3.18178 3.19842 3.09563 3.4672C3.00683 3.7376 2.99963 4.0944 2.99963 5.096V16.2992C2.99963 16.3952 3.04683 16.4528 3.10683 16.4808C3.1342 16.4938 3.16472 16.4988 3.19483 16.4952C3.2272 16.4897 3.25709 16.4743 3.28043 16.4512C3.53076 16.2208 3.85858 16.0928 4.19883 16.0928C4.53908 16.0928 4.8669 16.2208 5.11723 16.4512L5.50363 16.8048C5.638 16.9303 5.81499 17 5.99883 17C6.18267 17 6.35966 16.9303 6.49403 16.8048C6.84958 16.4772 7.31536 16.2953 7.79883 16.2953C8.2823 16.2953 8.74807 16.4772 9.10363 16.8048C9.238 16.9303 9.41499 17 9.59883 17C9.78267 17 9.95966 16.9303 10.094 16.8048C10.4496 16.4772 10.9154 16.2953 11.3988 16.2953C11.8823 16.2953 12.3481 16.4772 12.7036 16.8048C12.838 16.9303 13.015 17 13.1988 17C13.3827 17 13.5597 16.9303 13.694 16.8048L14.0804 16.4512C14.3308 16.2208 14.6586 16.0928 14.9988 16.0928C15.3391 16.0928 15.6669 16.2208 15.9172 16.4512C15.9516 16.4832 15.9812 16.4928 16.0036 16.4952C16.0335 16.4987 16.0637 16.4937 16.0908 16.4808C16.1508 16.4528 16.1988 16.3944 16.1988 16.2992V5.096C16.1988 4.0944 16.1908 3.7376 16.1028 3.4664C16.0164 3.1976 15.8693 2.9523 15.6728 2.74948C15.4764 2.54666 15.2359 2.39177 14.97 2.2968C14.7164 2.2088 14.3796 2.2008 13.4028 2.2008L5.79483 2.2ZM4.99963 6C4.99963 5.84087 5.06284 5.68826 5.17536 5.57574C5.28789 5.46321 5.4405 5.4 5.59963 5.4H5.99963C6.15876 5.4 6.31137 5.46321 6.42389 5.57574C6.53641 5.68826 6.59963 5.84087 6.59963 6C6.59963 6.15913 6.53641 6.31174 6.42389 6.42426C6.31137 6.53679 6.15876 6.6 5.99963 6.6H5.59963C5.4405 6.6 5.28789 6.53679 5.17536 6.42426C5.06284 6.31174 4.99963 6.15913 4.99963 6ZM7.79963 6C7.79963 5.84087 7.86284 5.68826 7.97536 5.57574C8.08789 5.46321 8.2405 5.4 8.39963 5.4H13.5996C13.7588 5.4 13.9114 5.46321 14.0239 5.57574C14.1364 5.68826 14.1996 5.84087 14.1996 6C14.1996 6.15913 14.1364 6.31174 14.0239 6.42426C13.9114 6.53679 13.7588 6.6 13.5996 6.6H8.39963C8.2405 6.6 8.08789 6.53679 7.97536 6.42426C7.86284 6.31174 7.79963 6.15913 7.79963 6ZM4.99963 8.8C4.99963 8.64087 5.06284 8.48826 5.17536 8.37574C5.28789 8.26321 5.4405 8.2 5.59963 8.2H5.99963C6.15876 8.2 6.31137 8.26321 6.42389 8.37574C6.53641 8.48826 6.59963 8.64087 6.59963 8.8C6.59963 8.95913 6.53641 9.11174 6.42389 9.22426C6.31137 9.33679 6.15876 9.4 5.99963 9.4H5.59963C5.4405 9.4 5.28789 9.33679 5.17536 9.22426C5.06284 9.11174 4.99963 8.95913 4.99963 8.8ZM7.79963 8.8C7.79963 8.64087 7.86284 8.48826 7.97536 8.37574C8.08789 8.26321 8.2405 8.2 8.39963 8.2H13.5996C13.7588 8.2 13.9114 8.26321 14.0239 8.37574C14.1364 8.48826 14.1996 8.64087 14.1996 8.8C14.1996 8.95913 14.1364 9.11174 14.0239 9.22426C13.9114 9.33679 13.7588 9.4 13.5996 9.4H8.39963C8.2405 9.4 8.08789 9.33679 7.97536 9.22426C7.86284 9.11174 7.79963 8.95913 7.79963 8.8ZM4.99963 11.6C4.99963 11.4409 5.06284 11.2883 5.17536 11.1757C5.28789 11.0632 5.4405 11 5.59963 11H5.99963C6.15876 11 6.31137 11.0632 6.42389 11.1757C6.53641 11.2883 6.59963 11.4409 6.59963 11.6C6.59963 11.7591 6.53641 11.9117 6.42389 12.0243C6.31137 12.1368 6.15876 12.2 5.99963 12.2H5.59963C5.4405 12.2 5.28789 12.1368 5.17536 12.0243C5.06284 11.9117 4.99963 11.7591 4.99963 11.6ZM7.79963 11.6C7.79963 11.4409 7.86284 11.2883 7.97536 11.1757C8.08789 11.0632 8.2405 11 8.39963 11H13.5996C13.7588 11 13.9114 11.0632 14.0239 11.1757C14.1364 11.2883 14.1996 11.4409 14.1996 11.6C14.1996 11.7591 14.1364 11.9117 14.0239 12.0243C13.9114 12.1368 13.7588 12.2 13.5996 12.2H8.39963C8.2405 12.2 8.08789 12.1368 7.97536 12.0243C7.86284 11.9117 7.79963 11.7591 7.79963 11.6Z" fill="#4A4A4A"/>
</svg>
