<svg width="20" height="20" viewBox="0 0 20 20" fill="none" xmlns="http://www.w3.org/2000/svg">
<path fill-rule="evenodd" clip-rule="evenodd" d="M7.95549 2.59961H11.2451C12.7155 2.59961 13.8803 2.59961 14.7915 2.72201C15.7291 2.84841 16.4883 3.11401 17.0875 3.71241C17.6859 4.31161 17.9515 5.07081 18.0779 6.00841C18.1499 6.54681 18.1795 7.17321 18.1915 7.89881C18.2014 7.95967 18.2025 8.02164 18.1947 8.08281C18.1995 8.53508 18.2014 9.02574 18.2003 9.55481V9.64441C18.2003 11.1148 18.2003 12.2796 18.0779 13.1908C17.9515 14.1284 17.6859 14.8876 17.0875 15.4868C16.4883 16.0852 15.7291 16.3508 14.7915 16.4772C13.8795 16.5996 12.7155 16.5996 11.2451 16.5996H7.95549C6.48509 16.5996 5.32029 16.5996 4.40909 16.4772C3.47149 16.3508 2.71229 16.0852 2.11309 15.4868C1.51469 14.8876 1.24909 14.1284 1.12269 13.1908C1.00029 12.2788 1.00029 11.1148 1.00029 9.64441V9.55481C0.999224 9.02574 1.00109 8.53508 1.00589 8.08281C0.997823 8.02168 0.998632 7.95971 1.00829 7.89881C1.02109 7.17321 1.05069 6.54681 1.12269 6.00841C1.24909 5.07081 1.51469 4.31161 2.11309 3.71241C2.71229 3.11401 3.47149 2.84841 4.40909 2.72201C5.32109 2.59961 6.48509 2.59961 7.95549 2.59961ZM2.20189 8.59961C2.20082 8.91001 2.20029 9.24334 2.20029 9.59961C2.20029 11.1252 2.20189 12.2092 2.31229 13.0316C2.42029 13.8356 2.62349 14.2996 2.96189 14.638C3.30029 14.9764 3.76429 15.1796 4.56909 15.2876C5.39149 15.398 6.47469 15.3996 8.00029 15.3996H11.2003C12.7259 15.3996 13.8099 15.398 14.6323 15.2876C15.4363 15.1796 15.9003 14.9764 16.2387 14.638C16.5771 14.2996 16.7803 13.8356 16.8883 13.0308C16.9987 12.2084 17.0003 11.1252 17.0003 9.59961C17.0003 9.24334 16.9998 8.91001 16.9987 8.59961H2.20189ZM16.9795 7.39961H2.22109C2.23709 6.93001 2.26429 6.52441 2.31229 6.16761C2.42029 5.36361 2.62349 4.89961 2.96189 4.56121C3.30029 4.22281 3.76429 4.01961 4.56909 3.91161C5.39149 3.80121 6.47469 3.79961 8.00029 3.79961H11.2003C12.7259 3.79961 13.8099 3.80121 14.6323 3.91161C15.4363 4.01961 15.9003 4.22281 16.2387 4.56121C16.5771 4.89961 16.7803 5.36361 16.8883 6.16841C16.9363 6.52441 16.9635 6.93001 16.9795 7.39961ZM4.20029 12.7996C4.20029 12.6405 4.2635 12.4879 4.37603 12.3753C4.48855 12.2628 4.64116 12.1996 4.80029 12.1996H8.00029C8.15942 12.1996 8.31203 12.2628 8.42455 12.3753C8.53708 12.4879 8.60029 12.6405 8.60029 12.7996C8.60029 12.9587 8.53708 13.1114 8.42455 13.2239C8.31203 13.3364 8.15942 13.3996 8.00029 13.3996H4.80029C4.64116 13.3996 4.48855 13.3364 4.37603 13.2239C4.2635 13.1114 4.20029 12.9587 4.20029 12.7996ZM9.40029 12.7996C9.40029 12.6405 9.4635 12.4879 9.57603 12.3753C9.68855 12.2628 9.84116 12.1996 10.0003 12.1996H11.2003C11.3594 12.1996 11.512 12.2628 11.6246 12.3753C11.7371 12.4879 11.8003 12.6405 11.8003 12.7996C11.8003 12.9587 11.7371 13.1114 11.6246 13.2239C11.512 13.3364 11.3594 13.3996 11.2003 13.3996H10.0003C9.84116 13.3996 9.68855 13.3364 9.57603 13.2239C9.4635 13.1114 9.40029 12.9587 9.40029 12.7996Z" fill="#4A4A4A"/>
</svg>
