<svg width="19" height="18" viewBox="0 0 19 18" fill="none" xmlns="http://www.w3.org/2000/svg">
<rect width="18" height="18" transform="translate(0.666016)" fill="white" fill-opacity="0.01"/>
<path fill-rule="evenodd" clip-rule="evenodd" d="M7.26563 1.19922C6.93426 1.19922 6.66563 1.46785 6.66563 1.79922C6.66563 2.13059 6.93426 2.39922 7.26563 2.39922H12.0656C12.397 2.39922 12.6656 2.13059 12.6656 1.79922C12.6656 1.46785 12.397 1.19922 12.0656 1.19922H7.26563ZM4.26562 4.19922C4.26562 3.86785 4.53426 3.59922 4.86563 3.59922H6.66563H12.6656H14.4656C14.7969 3.59922 15.0656 3.86785 15.0656 4.19922C15.0656 4.53059 14.7969 4.79922 14.4656 4.79922H13.8656V14.3992C13.8656 15.062 13.3284 15.5992 12.6656 15.5992H6.66563C6.00289 15.5992 5.46563 15.062 5.46563 14.3992V4.79922H4.86563C4.53426 4.79922 4.26562 4.53059 4.26562 4.19922ZM6.66563 4.79922H12.6656V14.3992H6.66563V4.79922Z" fill="#4A4A4A"/>
</svg>
