<svg width="16" height="16" viewBox="0 0 16 16" fill="none" xmlns="http://www.w3.org/2000/svg">
<rect width="16" height="16" fill="white" fill-opacity="0.01"/>
<path fill-rule="evenodd" clip-rule="evenodd" d="M8.53372 2.93336C8.53372 2.63881 8.29494 2.40002 8.00039 2.40002C7.70584 2.40002 7.46706 2.63881 7.46706 2.93336V7.46669H2.93372C2.63917 7.46669 2.40039 7.70547 2.40039 8.00002C2.40039 8.29457 2.63917 8.53336 2.93372 8.53336H7.46706V13.0667C7.46706 13.3612 7.70584 13.6 8.00039 13.6C8.29494 13.6 8.53372 13.3612 8.53372 13.0667V8.53336H13.0671C13.3616 8.53336 13.6004 8.29457 13.6004 8.00002C13.6004 7.70547 13.3616 7.46669 13.0671 7.46669H8.53372V2.93336Z" fill="white"/>
</svg>
