<svg width="24" height="24" viewBox="0 0 24 24" fill="none" xmlns="http://www.w3.org/2000/svg">
<path d="M12.0024 14.5433C12.3036 14.5433 12.5141 14.3644 12.5196 14.0882L12.5706 8.13149C12.5706 7.84002 12.3036 7.64062 11.9965 7.64062C11.6953 7.64062 11.4283 7.84002 11.4283 8.13149L11.4907 14.0882C11.4965 14.3644 11.7065 14.5433 12.0024 14.5433ZM11.9965 17.3606C12.103 17.3612 12.2086 17.3429 12.3071 17.3067C12.4057 17.2705 12.4953 17.2172 12.5709 17.1497C12.6464 17.0822 12.7064 17.002 12.7473 16.9136C12.7883 16.8252 12.8094 16.7303 12.8095 16.6346C12.8095 16.2307 12.4513 15.9085 11.9965 15.9085C11.8905 15.9085 11.7856 15.9272 11.6876 15.9637C11.5897 16.0001 11.5007 16.0536 11.4257 16.121C11.3507 16.1885 11.2913 16.2685 11.2508 16.3567C11.2102 16.4448 11.1894 16.5392 11.1895 16.6346C11.1902 16.8269 11.2755 17.0112 11.4267 17.1472C11.5779 17.2832 11.7827 17.3599 11.9965 17.3606Z" fill="#2F2F2F"/>
<path d="M12 21C16.9706 21 21 16.9706 21 12C21 7.02944 16.9706 3 12 3C7.02944 3 3 7.02944 3 12C3 16.9706 7.02944 21 12 21Z" stroke="#D7D7D5" stroke-width="2" stroke-linecap="round" stroke-linejoin="round"/>
</svg>
