<svg width="14" height="14" viewBox="0 0 14 14" fill="none" xmlns="http://www.w3.org/2000/svg">
<rect width="14" height="14" fill="white" fill-opacity="0.01"/>
<path fill-rule="evenodd" clip-rule="evenodd" d="M1.72631 6.99964C1.72631 4.35327 3.78879 1.72631 6.99964 1.72631C9.59274 1.72631 10.8744 3.64563 11.4206 4.66632H9.79966C9.54196 4.66632 9.33299 4.87526 9.33299 5.13299C9.33299 5.39072 9.54196 5.59966 9.79966 5.59966H12.5997C12.8574 5.59966 13.0663 5.39072 13.0663 5.13299V2.33299C13.0663 2.07526 12.8574 1.86632 12.5997 1.86632C12.342 1.86632 12.133 2.07526 12.133 2.33299V4.02529C11.4755 2.86617 9.9545 0.792969 6.99964 0.792969C3.20767 0.792969 0.792969 3.906 0.792969 6.99964C0.792969 10.0933 3.20767 13.2063 6.99964 13.2063C8.81389 13.2063 10.3244 12.4884 11.3999 11.3942C11.9757 10.8082 12.4254 10.1161 12.732 9.37098C12.8301 9.13266 12.7164 8.85993 12.4781 8.76185C12.2398 8.66375 11.967 8.77745 11.869 9.01579C11.6069 9.65266 11.2231 10.2425 10.7342 10.7399C9.82719 11.6629 8.55369 12.273 6.99964 12.273C3.78879 12.273 1.72631 9.64603 1.72631 6.99964Z" fill="#4A4A4A"/>
</svg>
