<svg width="19" height="18" viewBox="0 0 19 18" fill="none" xmlns="http://www.w3.org/2000/svg">
<path d="M9.44444 12.9939C10.3363 12.9939 11.0951 12.6807 11.721 12.0543C12.3469 11.428 12.66 10.6691 12.6606 9.77778C12.6611 8.88644 12.3479 8.12759 11.721 7.50122C11.0941 6.87485 10.3353 6.56193 9.44444 6.56244C8.89222 6.56244 8.41207 6.683 8.004 6.92411C7.59593 7.16522 7.25344 7.44133 6.97655 7.75244V6.42711H6.28822V8.95489H8.816V8.26733H7.44633C7.64648 7.9837 7.92207 7.74337 8.27311 7.54633C8.62415 7.3493 9.01459 7.25052 9.44444 7.25C10.1444 7.25 10.7407 7.4963 11.2333 7.98889C11.7259 8.48148 11.9722 9.07778 11.9722 9.77778C11.9722 10.4778 11.7259 11.0741 11.2333 11.5667C10.7407 12.0593 10.1444 12.3056 9.44444 12.3056C8.87407 12.3056 8.375 12.1401 7.94722 11.8093C7.51944 11.4785 7.21481 11.0606 7.03333 10.5556H6.30611C6.51767 11.3084 6.90993 11.9029 7.48289 12.339C8.05585 12.7751 8.7097 12.9934 9.44444 12.9939ZM5.25689 16C4.89859 16 4.59967 15.8802 4.36011 15.6407C4.12056 15.4011 4.00052 15.1022 4 14.7439V3.25611C4 2.89833 4.12004 2.59967 4.36011 2.36011C4.60018 2.12056 4.89911 2.00052 5.25689 2H10.671L14.8889 6.21789V14.7439C14.8889 15.1017 14.7691 15.4006 14.5296 15.6407C14.29 15.8807 13.9908 16.0005 13.632 16H5.25689ZM5.25689 15.2222H13.6328C13.752 15.2222 13.8617 15.1724 13.9618 15.0729C14.0619 14.9733 14.1116 14.8634 14.1111 14.7431V6.55L10.3389 2.77778H5.25689C5.13711 2.77778 5.02718 2.82756 4.92711 2.92711C4.82704 3.02667 4.77726 3.13633 4.77778 3.25611V14.7439C4.77778 14.8631 4.82756 14.9728 4.92711 15.0729C5.02667 15.173 5.13633 15.2227 5.25611 15.2222" fill="#4A4A4A"/>
</svg>
