<svg width="19" height="18" viewBox="0 0 19 18" fill="none" xmlns="http://www.w3.org/2000/svg">
<rect width="18" height="18" transform="translate(0.666016)" fill="white" fill-opacity="0.01"/>
<path fill-rule="evenodd" clip-rule="evenodd" d="M9.04047 1.50176L9.01536 1.5621L7.36911 5.52017C7.31727 5.64482 7.20004 5.72998 7.06548 5.74077L2.7924 6.08335L2.72725 6.08857L2.32941 6.12046L1.96846 6.14941C1.64926 6.17499 1.51984 6.57333 1.76303 6.78165L2.03803 7.01722L2.34115 7.27688L2.39079 7.31939L5.64642 10.1082C5.74894 10.196 5.79372 10.3338 5.76239 10.4651L4.76775 14.6349L4.75258 14.6985L4.65997 15.0867L4.57595 15.4389C4.50166 15.7504 4.8405 15.9967 5.11378 15.8297L5.4228 15.641L5.76341 15.4329L5.81919 15.3988L9.47754 13.1643C9.59274 13.094 9.73764 13.094 9.85284 13.1643L13.5112 15.3988L13.567 15.4329L13.9076 15.641L14.2166 15.8297C14.4899 15.9967 14.8288 15.7504 14.7545 15.4389L14.6704 15.0867L14.5778 14.6985L14.5626 14.6349L13.568 10.4651C13.5367 10.3338 13.5815 10.196 13.684 10.1082L16.9396 7.31939L16.9892 7.27688L17.2924 7.01722L17.5674 6.78165C17.8105 6.57333 17.6812 6.17499 17.362 6.14941L17.001 6.12046L16.6031 6.08857L16.538 6.08335L12.2649 5.74077C12.1303 5.72998 12.0131 5.64482 11.9613 5.52017L10.315 1.5621L10.2899 1.50176L10.1367 1.13324L9.99759 0.798898C9.87461 0.503232 9.45577 0.503232 9.3328 0.798898L9.19374 1.13324L9.04047 1.50176ZM9.6652 3.12447L8.47709 5.98101C8.25244 6.52114 7.74449 6.89019 7.16137 6.93694L4.07749 7.18417L6.42708 9.19684C6.87136 9.57741 7.06537 10.1745 6.92964 10.7436L6.21181 13.7529L8.85204 12.1402C9.35127 11.8353 9.97913 11.8353 10.4784 12.1402L13.1185 13.7529L12.4007 10.7436C12.265 10.1745 12.459 9.57741 12.9032 9.19684L15.2528 7.18417L12.169 6.93694C11.5859 6.89019 11.0779 6.52114 10.8533 5.98101L9.6652 3.12447Z" fill="white"/>
</svg>
