<svg width="14" height="14" viewBox="0 0 14 14" fill="none" xmlns="http://www.w3.org/2000/svg">
<path fill-rule="evenodd" clip-rule="evenodd" d="M6.4553 1.28528L6.43341 1.33653L4.99805 4.69818C4.95285 4.80404 4.85064 4.87637 4.73332 4.88553L1.00764 5.17649L0.950833 5.18092L0.603951 5.20801L0.289242 5.23259C0.0109376 5.25432 -0.10191 5.59264 0.110129 5.76957L0.349905 5.96964L0.614194 6.19017L0.657468 6.22628L3.49604 8.59484C3.58543 8.66943 3.62447 8.78647 3.59716 8.89799L2.72993 12.4394L2.71671 12.4935L2.63596 12.8232L2.5627 13.1223C2.49793 13.3869 2.79337 13.596 3.03163 13.4542L3.30107 13.2939L3.59805 13.1172L3.64668 13.0882L6.83638 11.1904C6.93683 11.1307 7.06316 11.1307 7.16361 11.1904L10.3533 13.0882L10.4019 13.1172L10.699 13.2939L10.9684 13.4542C11.2066 13.596 11.5021 13.3869 11.4373 13.1223L11.364 12.8232L11.2833 12.4935L11.27 12.4394L10.4029 8.89799C10.3756 8.78647 10.4146 8.66943 10.5039 8.59484L13.3425 6.22628L13.3858 6.19017L13.6501 5.96964L13.8899 5.76957C14.1019 5.59264 13.9891 5.25432 13.7108 5.23259L13.3961 5.20801L13.0491 5.18092L12.9924 5.17649L9.26667 4.88553C9.14935 4.87637 9.04714 4.80404 9.00194 4.69818L7.56658 1.33653L7.5447 1.28528L7.41106 0.972294L7.28981 0.688334C7.18259 0.437222 6.8174 0.437222 6.71018 0.688334L6.58894 0.972294L6.4553 1.28528ZM7 2.66347L5.96409 5.08957C5.76822 5.54831 5.32534 5.86175 4.81693 5.90146L2.1281 6.11143L4.1767 7.82082C4.56406 8.14404 4.73322 8.65119 4.61488 9.13447L3.98901 11.6903L6.29101 10.3207C6.72628 10.0617 7.27372 10.0617 7.70899 10.3207L10.0109 11.6903L9.38511 9.13447C9.26677 8.65119 9.43593 8.14404 9.82324 7.82082L11.8718 6.11143L9.18306 5.90146C8.67465 5.86175 8.23177 5.54831 8.0359 5.08957L7 2.66347Z" fill="#2F2F2F"/>
</svg>
