<svg width="19" height="18" viewBox="0 0 19 18" fill="none" xmlns="http://www.w3.org/2000/svg">
<path d="M7.44531 2.65039L8.85254 4.18848L9.0459 4.40039H15.7324C15.9477 4.40047 16.1321 4.46632 16.3076 4.62793L16.3828 4.70312C16.5576 4.89433 16.6561 5.11222 16.6777 5.38086L16.6816 5.49902V14.25C16.6816 14.5351 16.6052 14.7653 16.4521 14.9648L16.3828 15.0479C16.1856 15.264 15.9791 15.3499 15.7324 15.3496H2.93164C2.71605 15.3495 2.5314 15.2841 2.35645 15.123L2.28223 15.0479C2.10792 14.8572 2.00949 14.6387 1.9873 14.3682L1.98242 14.249V3.75C1.98242 3.46539 2.05906 3.236 2.21191 3.03711L2.28223 2.95312C2.45591 2.76364 2.63562 2.67393 2.84277 2.6543L2.93262 2.65039H7.44531Z" stroke="#4A4A4A" stroke-width="1.3"/>
</svg>
