<svg width="20" height="20" viewBox="0 0 20 20" fill="none" xmlns="http://www.w3.org/2000/svg">
<g id="mage:trash">
<g id="Group">
<path id="Vector" d="M4.37557 5.41199V15.4232C4.37546 15.7091 4.43169 15.9922 4.54105 16.2563C4.65041 16.5205 4.81075 16.7605 5.0129 16.9627C5.21506 17.1648 5.45507 17.3252 5.71922 17.4345C5.98337 17.5439 6.26647 17.6001 6.55237 17.6H12.6468C13.2239 17.6 13.7774 17.3707 14.1854 16.9627C14.5935 16.5546 14.8228 16.0011 14.8228 15.424V5.41119M2.63477 5.41199H16.5644" stroke="#4A4A4A" stroke-width="1.2" stroke-linecap="round" stroke-linejoin="round"/>
<path id="Vector_2" d="M6.98828 5.41199V4.10559C6.98807 3.93401 7.02172 3.76407 7.08731 3.60552C7.1529 3.44697 7.24913 3.30293 7.3705 3.18164C7.49186 3.06035 7.63597 2.9642 7.79456 2.89871C7.95315 2.83322 8.1231 2.79967 8.29468 2.79999H10.9059C11.0775 2.79967 11.2474 2.83322 11.406 2.89871C11.5646 2.9642 11.7087 3.06035 11.8301 3.18164C11.9514 3.30293 12.0477 3.44697 12.1133 3.60552C12.1788 3.76407 12.2125 3.93401 12.2123 4.10559V5.41199M7.85948 14.1936V9.84239M11.3419 14.1936V9.84239" stroke="#4A4A4A" stroke-width="1.2" stroke-linecap="round" stroke-linejoin="round"/>
</g>
</g>
</svg>
