<svg width="19" height="18" viewBox="0 0 19 18" fill="none" xmlns="http://www.w3.org/2000/svg">
<rect width="18" height="18" transform="translate(0.666016)" fill="white" fill-opacity="0.01"/>
<path fill-rule="evenodd" clip-rule="evenodd" d="M7.26562 1.2002C6.93426 1.2002 6.66563 1.46883 6.66563 1.8002C6.66563 2.13156 6.93426 2.4002 7.26562 2.4002H12.0656C12.397 2.4002 12.6656 2.13156 12.6656 1.8002C12.6656 1.46883 12.397 1.2002 12.0656 1.2002H7.26562ZM4.26562 4.2002C4.26562 3.86883 4.53426 3.6002 4.86563 3.6002H6.66563H12.6656H14.4656C14.7969 3.6002 15.0656 3.86883 15.0656 4.2002C15.0656 4.53156 14.7969 4.8002 14.4656 4.8002H13.8656V14.4002C13.8656 15.063 13.3284 15.6002 12.6656 15.6002H6.66563C6.00289 15.6002 5.46563 15.063 5.46563 14.4002V4.8002H4.86563C4.53426 4.8002 4.26562 4.53156 4.26562 4.2002ZM6.66563 4.8002H12.6656V14.4002H6.66563V4.8002Z" fill="white"/>
</svg>
