<svg width="20" height="20" viewBox="0 0 20 20" fill="none" xmlns="http://www.w3.org/2000/svg">
<path d="M13.16 15.953C12.9991 15.953 12.8448 15.8891 12.7311 15.7753C12.6173 15.6615 12.5534 15.5072 12.5534 15.3463C12.5534 15.1854 12.6173 15.0311 12.7311 14.9173C12.8448 14.8036 12.9991 14.7397 13.16 14.7397H15.7734C16.0573 14.7396 16.337 14.671 16.5887 14.5397C16.8404 14.4084 17.0567 14.2182 17.2192 13.9855C17.3818 13.7527 17.4857 13.4841 17.5222 13.2025C17.5587 12.921 17.5267 12.6348 17.429 12.3682C17.3312 12.1017 17.1706 11.8627 16.9607 11.6715C16.7508 11.4803 16.4978 11.3426 16.2233 11.2701C15.9488 11.1976 15.6609 11.1925 15.384 11.2551C15.1071 11.3176 14.8493 11.4462 14.6327 11.6297L14.6354 11.6277C14.5119 11.7264 14.3549 11.7732 14.1975 11.758C14.0402 11.7428 13.8949 11.6669 13.7927 11.5463C13.6904 11.4258 13.6392 11.2701 13.6499 11.1123C13.6606 10.9546 13.7324 10.8073 13.85 10.7017L13.8507 10.701C14.2499 10.3622 14.7319 10.1354 15.2474 10.0437L15.2654 10.041C15.2589 9.04038 14.9325 8.06808 14.3339 7.26623C13.7353 6.46438 12.896 5.87502 11.9385 5.58431C10.981 5.29361 9.95565 5.3168 9.0123 5.6505C8.06895 5.98419 7.25708 6.6109 6.69536 7.43899L6.6847 7.45566C7.14362 7.61838 7.57184 7.85728 7.95136 8.16233L7.9427 8.15566C8.04162 8.23376 8.11379 8.34071 8.14921 8.46166C8.18463 8.58262 8.18153 8.7116 8.14036 8.83073C8.09919 8.94985 8.02197 9.05321 7.91942 9.12648C7.81687 9.19976 7.69407 9.23931 7.56803 9.23966C7.42792 9.24012 7.29207 9.19153 7.18403 9.10233L7.18536 9.10299C6.62953 8.65311 5.93578 8.40829 5.2207 8.40966H5.21136C4.37222 8.40966 3.56811 8.74301 2.97475 9.33637C2.38138 9.92974 2.04803 10.7345 2.04803 11.5737C2.04803 12.4128 2.38138 13.2176 2.97475 13.8109C3.56811 14.4043 4.37289 14.7377 5.21203 14.7377H6.60736C6.76826 14.7377 6.92257 14.8016 7.03634 14.9153C7.15012 15.0291 7.21403 15.1834 7.21403 15.3443C7.21403 15.5052 7.15012 15.6595 7.03634 15.7733C6.92257 15.8871 6.76826 15.951 6.60736 15.951H5.21003C4.04891 15.951 2.93535 15.4897 2.11432 14.6687C1.29328 13.8477 0.832031 12.7341 0.832031 11.573C0.832031 10.4119 1.29328 9.29831 2.11432 8.47728C2.93535 7.65624 4.04891 7.19499 5.21003 7.19499C5.27803 7.19499 5.3447 7.20033 5.41336 7.20366C6.44203 5.37899 8.36736 4.16699 10.5754 4.16699C12.1416 4.16717 13.6436 4.78937 14.7511 5.89678C15.8586 7.00419 16.481 8.50613 16.4814 10.0723V10.0843C17.7934 10.4137 18.75 11.5823 18.75 12.975C18.7499 13.7642 18.4363 14.5211 17.8782 15.0791C17.3201 15.6372 16.5633 15.9508 15.774 15.951L13.16 15.953ZM9.1827 15.3463V12.555L8.4967 13.2417C8.38283 13.3554 8.22843 13.4193 8.06746 13.4193C7.90649 13.4192 7.75214 13.3552 7.63836 13.2413C7.52459 13.1275 7.4607 12.9731 7.46076 12.8121C7.46083 12.6511 7.52483 12.4968 7.6387 12.383L9.3607 10.6603C9.39902 10.6239 9.44154 10.5921 9.48736 10.5657L9.4907 10.5643C9.50181 10.5577 9.51314 10.5519 9.5247 10.547C9.56839 10.5244 9.61445 10.5068 9.66203 10.4943L9.66603 10.4937H9.6727C9.72445 10.4851 9.77704 10.4826 9.82936 10.4863H9.82736H9.83403C9.84559 10.4863 9.8567 10.4877 9.86736 10.4903H9.8667C9.92359 10.497 9.97648 10.5105 10.0254 10.531L10.0214 10.5297C10.0542 10.544 10.0859 10.5609 10.116 10.5803L10.114 10.579L10.1394 10.5963C10.1622 10.6127 10.1841 10.6305 10.2047 10.6497L10.2194 10.6617L11.9427 12.3843C11.9991 12.4407 12.0438 12.5076 12.0743 12.5812C12.1049 12.6548 12.1206 12.7337 12.1206 12.8134C12.1207 12.8931 12.105 12.9721 12.0745 13.0457C12.044 13.1194 11.9994 13.1863 11.943 13.2427C11.8867 13.299 11.8198 13.3438 11.7462 13.3743C11.6726 13.4048 11.5936 13.4206 11.5139 13.4206C11.4342 13.4206 11.3553 13.405 11.2817 13.3745C11.208 13.344 11.1411 13.2993 11.0847 13.243L10.398 12.5563V15.3497C10.398 15.5106 10.3341 15.6649 10.2203 15.7786C10.1066 15.8924 9.95226 15.9563 9.79136 15.9563C9.63047 15.9563 9.47616 15.8924 9.36239 15.7786C9.24862 15.6649 9.1847 15.5106 9.1847 15.3497L9.1827 15.3463Z" fill="#4A4A4A"/>
</svg>
