<svg width="10" height="10" viewBox="0 0 10 10" fill="none" xmlns="http://www.w3.org/2000/svg">
<path d="M5 0.125C5.09946 0.125 5.19484 0.164509 5.26516 0.234835C5.33549 0.305161 5.375 0.400544 5.375 0.5V2C5.375 2.09946 5.33549 2.19484 5.26516 2.26517C5.19484 2.33549 5.09946 2.375 5 2.375C4.90054 2.375 4.80516 2.33549 4.73484 2.26517C4.66451 2.19484 4.625 2.09946 4.625 2V0.5C4.625 0.400544 4.66451 0.305161 4.73484 0.234835C4.80516 0.164509 4.90054 0.125 5 0.125ZM8.448 1.552C8.51822 1.62231 8.55767 1.71762 8.55767 1.817C8.55767 1.91638 8.51822 2.01169 8.448 2.082L7.3885 3.142C7.31774 3.21028 7.223 3.24803 7.12467 3.24713C7.02635 3.24623 6.93231 3.20675 6.86282 3.13719C6.79332 3.06762 6.75393 2.97355 6.75312 2.87523C6.75231 2.7769 6.79016 2.68219 6.8585 2.6115L7.9175 1.552C7.98781 1.48177 8.08312 1.44233 8.1825 1.44233C8.28188 1.44233 8.37769 1.48177 8.448 1.552ZM7.625 5C7.625 4.90054 7.66451 4.80516 7.73483 4.73484C7.80516 4.66451 7.90054 4.625 8 4.625H9.5C9.59946 4.625 9.69484 4.66451 9.76517 4.73484C9.83549 4.80516 9.875 4.90054 9.875 5C9.875 5.09946 9.83549 5.19484 9.76517 5.26516C9.69484 5.33549 9.59946 5.375 9.5 5.375H8C7.90054 5.375 7.80516 5.33549 7.73483 5.26516C7.66451 5.19484 7.625 5.09946 7.625 5ZM6.8585 6.8585C6.92881 6.78827 7.02412 6.74883 7.1235 6.74883C7.22288 6.74883 7.31819 6.78827 7.3885 6.8585L8.448 7.9175C8.51634 7.98819 8.55419 8.0829 8.55338 8.18123C8.55257 8.27955 8.51318 8.37362 8.44368 8.44319C8.37419 8.51275 8.28015 8.55223 8.18183 8.55313C8.0835 8.55403 7.98876 8.51628 7.918 8.448L6.858 7.3885C6.78777 7.31819 6.74833 7.22288 6.74833 7.1235C6.74833 7.02412 6.78777 6.92881 6.858 6.8585M5 7.625C5.09946 7.625 5.19484 7.66451 5.26516 7.73483C5.33549 7.80516 5.375 7.90054 5.375 8V9.5C5.375 9.59946 5.33549 9.69484 5.26516 9.76517C5.19484 9.83549 5.09946 9.875 5 9.875C4.90054 9.875 4.80516 9.83549 4.73484 9.76517C4.66451 9.69484 4.625 9.59946 4.625 9.5V8C4.625 7.90054 4.66451 7.80516 4.73484 7.73483C4.80516 7.66451 4.90054 7.625 5 7.625ZM3.1415 6.8585C3.21173 6.92881 3.25117 7.02412 3.25117 7.1235C3.25117 7.22288 3.21173 7.31819 3.1415 7.3885L2.0825 8.448C2.04817 8.48484 2.00677 8.51439 1.96077 8.53489C1.91477 8.55539 1.86511 8.56641 1.81476 8.5673C1.76441 8.56818 1.7144 8.55892 1.6677 8.54006C1.62101 8.5212 1.57859 8.49313 1.54298 8.45752C1.50737 8.42191 1.4793 8.37949 1.46044 8.3328C1.44158 8.28611 1.43232 8.23609 1.4332 8.18574C1.43409 8.13539 1.44511 8.08573 1.46561 8.03973C1.48611 7.99373 1.51566 7.95233 1.5525 7.918L2.6115 6.858C2.68181 6.78777 2.77712 6.74833 2.8765 6.74833C2.97588 6.74833 3.07119 6.78777 3.1415 6.858M0.125 5C0.125 4.90054 0.164509 4.80516 0.234835 4.73484C0.305161 4.66451 0.400544 4.625 0.5 4.625H2C2.09946 4.625 2.19484 4.66451 2.26517 4.73484C2.33549 4.80516 2.375 4.90054 2.375 5C2.375 5.09946 2.33549 5.19484 2.26517 5.26516C2.19484 5.33549 2.09946 5.375 2 5.375H0.5C0.400544 5.375 0.305161 5.33549 0.234835 5.26516C0.164509 5.19484 0.125 5.09946 0.125 5ZM1.552 1.552C1.62231 1.48177 1.71762 1.44233 1.817 1.44233C1.91638 1.44233 2.01169 1.48177 2.082 1.552L3.142 2.6115C3.21028 2.68226 3.24803 2.777 3.24713 2.87533C3.24623 2.97365 3.20675 3.06769 3.13719 3.13718C3.06762 3.20668 2.97355 3.24607 2.87523 3.24688C2.7769 3.24769 2.68219 3.20984 2.6115 3.1415L1.552 2.0825C1.51715 2.04767 1.48951 2.00632 1.47065 1.96081C1.45179 1.9153 1.44208 1.86652 1.44208 1.81725C1.44208 1.76798 1.45179 1.7192 1.47065 1.67369C1.48951 1.62818 1.51715 1.58683 1.552 1.552Z" fill="#8A8A8A"/>
</svg>
