<svg width="227" height="52" viewBox="0 0 227 52" fill="none" xmlns="http://www.w3.org/2000/svg">
<path d="M0 12.905C0 10.1436 2.23858 7.90503 5 7.90503H25C27.7614 7.90503 30 10.1436 30 12.905C30 15.6665 27.7614 17.905 25 17.905H5C2.23858 17.905 0 15.6665 0 12.905Z" fill="#FBC536"/>
<path d="M0 25.905C0 23.1436 2.23858 20.905 5 20.905H43C45.7614 20.905 48 23.1436 48 25.905C48 28.6665 45.7614 30.905 43 30.905H5C2.23858 30.905 0 28.6665 0 25.905Z" fill="#2A7EFB"/>
<path d="M14 38.905C14 36.1436 16.2386 33.905 19 33.905H43C45.7614 33.905 48 36.1436 48 38.905C48 41.6665 45.7614 43.905 43 43.905H19C16.2386 43.905 14 41.6665 14 38.905Z" fill="#1FD081"/>
<path d="M114.267 13.0769C115.356 13.0769 116.304 13.5033 117.109 14.3561C117.915 15.1616 118.318 16.204 118.318 17.4832C118.318 17.8149 118.294 18.1229 118.246 18.4071C118.199 18.644 118.128 18.8809 118.033 19.1178L107.16 48.3987C106.828 49.3463 106.236 50.0807 105.383 50.6018C104.53 51.0756 103.63 51.2415 102.682 51.0993C101.071 51.0046 99.863 50.1044 99.0576 48.3987L92.0217 28.1437L93.8695 28.2148L87.26 48.3987C86.4545 50.1044 85.2463 51.0046 83.6354 51.0993C82.7352 51.2415 81.835 51.0756 80.9347 50.6018C80.0819 50.0807 79.4896 49.3463 79.158 48.3987L68.2843 19.1178C68.0948 18.5966 68 18.0518 68 17.4832C68 16.3461 68.379 15.3274 69.1371 14.4272C69.8952 13.527 70.9376 13.0769 72.2642 13.0769C73.1644 13.0769 73.9699 13.2901 74.6806 13.7165C75.3913 14.1429 75.8888 14.8299 76.173 15.7775L84.7725 39.0885L82.9958 38.9464L89.4631 21.3921C90.2212 19.639 91.5242 18.7625 93.372 18.7625C94.4144 18.7625 95.1961 18.9994 95.7173 19.4732C96.2859 19.8996 96.736 20.5392 97.0676 21.3921L103.535 38.9464L101.403 39.2306L110.145 15.7775C110.713 13.9771 112.087 13.0769 114.267 13.0769Z" fill="white"/>
<path d="M131.649 46.7641C131.649 47.9959 131.246 49.0383 130.441 49.8911C129.635 50.6966 128.616 51.0993 127.385 51.0993C126.153 51.0993 125.134 50.6966 124.329 49.8911C123.523 49.0383 123.12 47.9959 123.12 46.7641V17.4121C123.12 16.1803 123.523 15.1616 124.329 14.3561C125.134 13.5033 126.153 13.0769 127.385 13.0769C128.616 13.0769 129.635 13.5033 130.441 14.3561C131.246 15.1616 131.649 16.1803 131.649 17.4121V46.7641ZM127.313 8.45733C125.703 8.45733 124.565 8.19674 123.902 7.67556C123.239 7.15438 122.907 6.23047 122.907 4.90383V3.5535C122.907 2.17948 123.262 1.25557 123.973 0.781773C124.731 0.260591 125.868 0 127.385 0C129.043 0 130.204 0.260591 130.867 0.781773C131.53 1.30295 131.862 2.22686 131.862 3.5535V4.90383C131.862 6.27785 131.507 7.22545 130.796 7.74663C130.085 8.22043 128.924 8.45733 127.313 8.45733Z" fill="white"/>
<path d="M147.023 46.7641C147.023 47.9959 146.62 49.0383 145.815 49.8911C145.01 50.6966 143.991 51.0993 142.759 51.0993C141.527 51.0993 140.508 50.6966 139.703 49.8911C138.898 49.0383 138.495 47.9959 138.495 46.7641V17.4121C138.495 16.1803 138.898 15.1616 139.703 14.3561C140.508 13.5033 141.527 13.0769 142.759 13.0769C143.991 13.0769 145.01 13.5033 145.815 14.3561C146.62 15.1616 147.023 16.1803 147.023 17.4121V46.7641ZM142.688 8.45733C141.077 8.45733 139.94 8.19674 139.277 7.67556C138.613 7.15438 138.282 6.23047 138.282 4.90383V3.5535C138.282 2.17948 138.637 1.25557 139.348 0.781773C140.106 0.260591 141.243 0 142.759 0C144.417 0 145.578 0.260591 146.241 0.781773C146.905 1.30295 147.236 2.22686 147.236 3.5535V4.90383C147.236 6.27785 146.881 7.22545 146.17 7.74663C145.46 8.22043 144.299 8.45733 142.688 8.45733Z" fill="white"/>
<path d="M156.072 13.0769C156.973 13.0769 157.802 13.3138 158.56 13.7876C159.318 14.214 159.886 14.8773 160.266 15.7775L170.713 39.6571L169.149 40.3678L179.81 15.8486C180.615 13.9534 181.871 13.0532 183.576 13.148C184.761 13.148 185.709 13.527 186.419 14.2851C187.177 14.9958 187.556 15.896 187.556 16.9857C187.556 17.3174 187.485 17.6727 187.343 18.0518C187.248 18.4308 187.13 18.7862 186.988 19.1178L173.698 48.3987C172.94 50.1044 171.731 51.0046 170.073 51.0993C169.173 51.2415 168.296 51.0756 167.444 50.6018C166.638 50.128 166.022 49.3937 165.596 48.3987L152.377 19.1178C152.282 18.8809 152.164 18.573 152.021 18.1939C151.927 17.8149 151.879 17.3648 151.879 16.8436C151.879 15.9908 152.258 15.1616 153.016 14.3561C153.774 13.5033 154.793 13.0769 156.072 13.0769Z" fill="white"/>
<path d="M210.415 51.81C206.388 51.81 202.882 50.9809 199.897 49.3226C196.959 47.6169 194.685 45.319 193.074 42.4288C191.511 39.5386 190.729 36.2694 190.729 32.6211C190.729 28.3569 191.582 24.7324 193.288 21.7474C195.041 18.7151 197.315 16.3935 200.11 14.7826C202.906 13.1716 205.867 12.3662 208.994 12.3662C211.41 12.3662 213.685 12.8637 215.817 13.8586C217.996 14.8536 219.915 16.2277 221.573 17.9807C223.232 19.6864 224.535 21.6764 225.482 23.9506C226.477 26.2248 226.975 28.6412 226.975 31.1997C226.927 32.3369 226.477 33.2608 225.624 33.9715C224.772 34.6822 223.777 35.0375 222.639 35.0375H195.491L193.359 27.9305H219.441L217.878 29.3519V27.433C217.783 26.059 217.286 24.8271 216.385 23.7374C215.532 22.6476 214.443 21.7948 213.116 21.1789C211.837 20.5155 210.463 20.1839 208.994 20.1839C207.573 20.1839 206.246 20.3734 205.014 20.7524C203.782 21.1315 202.716 21.7711 201.816 22.6713C200.916 23.5716 200.205 24.7797 199.684 26.2959C199.163 27.8121 198.902 29.731 198.902 32.0526C198.902 34.6111 199.423 36.7906 200.466 38.591C201.555 40.3441 202.929 41.6944 204.588 42.642C206.293 43.5422 208.094 43.9923 209.989 43.9923C211.742 43.9923 213.14 43.8502 214.182 43.5659C215.224 43.2816 216.054 42.95 216.67 42.5709C217.333 42.1445 217.925 41.7892 218.446 41.5049C219.299 41.0785 220.105 40.8653 220.863 40.8653C221.905 40.8653 222.758 41.2206 223.421 41.9313C224.132 42.642 224.487 43.4712 224.487 44.4188C224.487 45.698 223.824 46.8588 222.497 47.9012C221.265 48.9435 219.536 49.8675 217.309 50.6729C215.082 51.431 212.784 51.81 210.415 51.81Z" fill="white"/>
</svg>
