<svg width="17" height="17" viewBox="0 0 17 17" fill="none" xmlns="http://www.w3.org/2000/svg">
<path d="M1 6.19998H16.2M9.4 9.39998H12.6M9.4 12.6H11M4.6 3.79998H4.6072M7.8 3.79998H7.8072M6.2 6.19998V16.2M1 8.59998C1 5.01758 1 3.22558 2.1128 2.11278C3.2256 0.999977 5.0168 0.999977 8.6 0.999977C12.1824 0.999977 13.9744 0.999977 15.0872 2.11278C16.2 3.22558 16.2 5.01678 16.2 8.59998C16.2 12.1824 16.2 13.9744 15.0872 15.0872C13.9744 16.2 12.1832 16.2 8.6 16.2C5.0176 16.2 3.2256 16.2 2.1128 15.0872C1 13.9744 1 12.1832 1 8.59998Z" stroke="#4A4A4A" stroke-width="1.2" stroke-linecap="round" stroke-linejoin="round"/>
</svg>
